<?xml version="1.0" encoding="UTF-8"?>
<svg xmlns="http://www.w3.org/2000/svg" width="56" height="56" viewBox="0 0 56 56">
  <!-- Background rounded rectangle -->
  <rect
    x="3"
    y="3"
    width="50"
    height="50"
    fill="#1E1E1E"
    rx="6"
    ry="6"
  />

  <!-- Border -->
  <rect
    x="3"
    y="3"
    width="50"
    height="50"
    fill="none"
    stroke="#3A3A3A"
    stroke-width="1"
    rx="6"
    ry="6"
  />

  <!-- Line graphs -->
  
    <path
      d="M7.0 37.2 L11.7 31.4 L16.3 39.8 L21.0 33.0 L25.7 34.3 L30.3 28.8 L35.0 36.4 L39.7 30.1 L44.3 35.6 L49.0 29.7 L49.0 49.0 L44.3 49.0 L39.7 49.0 L35.0 49.0 L30.3 49.0 L25.7 49.0 L21.0 49.0 L16.3 49.0 L11.7 49.0 L7.0 49.0 Z"
      fill="#27D4FF"
      opacity="0.15"
    />
    <path
      d="M7.0 28.8 L11.7 18.8 L16.3 30.5 L21.0 21.3 L25.7 23.4 L30.3 20.4 L35.0 25.1 L39.7 22.5 L44.3 23.8 L49.0 20.4 L49.0 29.7 L44.3 35.6 L39.7 30.1 L35.0 36.4 L30.3 28.8 L25.7 34.3 L21.0 33.0 L16.3 39.8 L11.7 31.4 L7.0 37.2 Z"
      fill="#C8A0FF"
      opacity="0.15"
    />
    <path
      d="M7.0 17.1 L11.7 15.4 L16.3 17.9 L21.0 17.1 L25.7 12.5 L30.3 15.4 L35.0 13.3 L39.7 16.7 L44.3 15.4 L49.0 10.4 L49.0 20.4 L44.3 23.8 L39.7 22.5 L35.0 25.1 L30.3 20.4 L25.7 23.4 L21.0 21.3 L16.3 30.5 L11.7 18.8 L7.0 28.8 Z"
      fill="#4CFF8A"
      opacity="0.15"
    />
    <path
      d="M7.0 37.2 L11.7 31.4 L16.3 39.8 L21.0 33.0 L25.7 34.3 L30.3 28.8 L35.0 36.4 L39.7 30.1 L44.3 35.6 L49.0 29.7"
      fill="none"
      stroke="#27D4FF"
      stroke-width="1"
      stroke-linecap="round"
      stroke-linejoin="round"
      opacity="0.95"
    />
    <path
      d="M7.0 28.8 L11.7 18.8 L16.3 30.5 L21.0 21.3 L25.7 23.4 L30.3 20.4 L35.0 25.1 L39.7 22.5 L44.3 23.8 L49.0 20.4"
      fill="none"
      stroke="#C8A0FF"
      stroke-width="1"
      stroke-linecap="round"
      stroke-linejoin="round"
      opacity="1"
    />
    <path
      d="M7.0 17.1 L11.7 15.4 L16.3 17.9 L21.0 17.1 L25.7 12.5 L30.3 15.4 L35.0 13.3 L39.7 16.7 L44.3 15.4 L49.0 10.4"
      fill="none"
      stroke="#4CFF8A"
      stroke-width="1"
      stroke-linecap="round"
      stroke-linejoin="round"
      opacity="0.95"
    />
</svg>