<?xml version="1.0" encoding="UTF-8"?>
<svg xmlns="http://www.w3.org/2000/svg" width="56" height="56" viewBox="0 0 56 56">
  <!-- Background rounded rectangle -->
  <rect
    x="3"
    y="3"
    width="50"
    height="50"
    fill="#1E1E1E"
    rx="6"
    ry="6"
  />

  <!-- Border -->
  <rect
    x="3"
    y="3"
    width="50"
    height="50"
    fill="none"
    stroke="#3A3A3A"
    stroke-width="1"
    rx="6"
    ry="6"
  />

  <!-- Dimmed fill -->
  <path
    d="M8.0 36.0 L13.7 26.0 L19.4 40.0 L25.1 22.0 L30.9 34.0 L36.6 24.0 L42.3 38.0 L48.0 20.0 L48.0 48 L42.3 48 L36.6 48 L30.9 48 L25.1 48 L19.4 48 L13.7 48 L8.0 48 Z"
    fill="#27D4FF"
    opacity="0.15"
  />

  <!-- Bright line -->
  <path
    d="M8.0 36.0 L13.7 26.0 L19.4 40.0 L25.1 22.0 L30.9 34.0 L36.6 24.0 L42.3 38.0 L48.0 20.0"
    fill="none"
    stroke="#27D4FF"
    stroke-width="1.5"
    stroke-linecap="round"
    stroke-linejoin="round"
    opacity="1"
  />
</svg>