<?xml version="1.0" encoding="UTF-8"?>
<svg xmlns="http://www.w3.org/2000/svg" width="56" height="56" viewBox="0 0 56 56">
  <!-- Background rounded rectangle -->
  <rect
    x="3"
    y="3"
    width="50"
    height="50"
    fill="#1E1E1E"
    rx="6"
    ry="6"
  />

  <!-- Border -->
  <rect
    x="3"
    y="3"
    width="50"
    height="50"
    fill="none"
    stroke="#3A3A3A"
    stroke-width="1"
    rx="6"
    ry="6"
  />

  <!-- Dimmed fill -->
  <path
    d="M8.0 40.8 Q8.0 40.8 10.9 30.0 Q13.7 19.2 16.6 26.4 Q19.4 33.6 22.3 30.9 Q25.1 28.1 28.0 31.4 Q30.9 34.7 33.7 31.7 Q36.6 28.7 39.4 36.8 Q42.3 44.8 45.1 30.4 T48.0 16.0 L48.0 48 L8.0 48 Z"
    fill="#FFD166"
    opacity="0.15"
  />

  <!-- Bright line -->
  <path
    d="M8.0 40.8 Q8.0 40.8 10.9 30.0 Q13.7 19.2 16.6 26.4 Q19.4 33.6 22.3 30.9 Q25.1 28.1 28.0 31.4 Q30.9 34.7 33.7 31.7 Q36.6 28.7 39.4 36.8 Q42.3 44.8 45.1 30.4 T48.0 16.0"
    fill="none"
    stroke="#FFD166"
    stroke-width="1.5"
    stroke-linecap="round"
    stroke-linejoin="round"
    opacity="1"
  />
</svg>